<svg width="11" height="14" viewBox="0 0 11 14" fill="none" xmlns="http://www.w3.org/2000/svg">
<path d="M5.63584 0C8.33862 0 10.5375 2.27451 10.5375 5.07024C10.5375 8.53983 6.15099 13.6334 5.96423 13.8485C5.78882 14.0506 5.48255 14.0503 5.30745 13.8485C5.12069 13.6334 0.734206 8.53983 0.734206 5.07024C0.734259 2.27451 2.93309 0 5.63584 0ZM5.63584 7.62122C6.99567 7.62122 8.10195 6.47686 8.10195 5.07024C8.10195 3.66362 6.99565 2.51929 5.63584 2.51929C4.27603 2.51929 3.16976 3.66365 3.16976 5.07027C3.16976 6.47689 4.27603 7.62122 5.63584 7.62122Z" fill="#0EBED9"/>
</svg>
