<svg width="10" height="8" viewBox="0 0 10 8" fill="none" xmlns="http://www.w3.org/2000/svg">
<path d="M9.44361 1.56751L8.97832 1.08605C8.81708 0.927789 8.62876 0.848633 8.41379 0.848633C8.1944 0.848633 8.00832 0.927789 7.85525 1.08605L4.83957 4.20556L1.82392 1.08614C1.67087 0.927878 1.48475 0.848723 1.26544 0.848723C1.05036 0.848723 0.862088 0.927878 0.700826 1.08614L0.241644 1.5676C0.0844254 1.73011 0.00585938 1.92487 0.00585938 2.15168C0.00585938 2.38271 0.0845123 2.57526 0.241623 2.72928L4.28107 6.90771C4.43005 7.07025 4.61611 7.15159 4.83955 7.15159C5.0588 7.15159 5.24705 7.07027 5.40412 6.90771L9.44358 2.72928C9.59665 2.57092 9.67324 2.3784 9.67324 2.15168C9.67326 1.92909 9.59667 1.73445 9.44361 1.56751Z" fill="#0EBED9"/>
</svg>
