<svg width="14" height="14" viewBox="0 0 14 14" fill="none" xmlns="http://www.w3.org/2000/svg">
<path d="M12.1502 5.7849L7.49283 10.4416C6.97865 10.9741 6.27897 11.2878 5.53938 11.3174C4.79979 11.3471 4.07725 11.0905 3.52208 10.6009C3.25099 10.3457 3.03393 10.0386 2.88378 9.69782C2.73364 9.35709 2.65347 8.98967 2.64803 8.61737C2.64259 8.24506 2.71199 7.87546 2.85211 7.53049C2.99224 7.18551 3.20023 6.8722 3.46375 6.60915L7.43041 2.64248C7.74316 2.33883 8.16282 2.17041 8.59871 2.17362C9.03461 2.17684 9.45174 2.35142 9.75998 2.65966C10.0682 2.96789 10.2428 3.38503 10.246 3.82092C10.2492 4.25682 10.0808 4.67648 9.77716 4.98923L5.81049 8.9559C5.70816 9.05306 5.57244 9.10723 5.43133 9.10723C5.29022 9.10723 5.15449 9.05306 5.05216 8.9559C4.95242 8.85491 4.89648 8.71868 4.89648 8.57673C4.89648 8.43478 4.95242 8.29856 5.05216 8.19756L8.22374 5.02598C8.33328 4.91583 8.39457 4.76667 8.39413 4.61133C8.39369 4.45599 8.33156 4.30718 8.22141 4.19765C8.11126 4.08811 7.9621 4.02682 7.80676 4.02726C7.65142 4.0277 7.50261 4.08983 7.39308 4.19998L4.2215 7.3704C3.90243 7.69045 3.72327 8.12393 3.72327 8.57586C3.72327 9.02778 3.90243 9.46126 4.2215 9.78131C4.54617 10.0913 4.97779 10.2642 5.42666 10.2642C5.87553 10.2642 6.30715 10.0913 6.63183 9.78131L10.5985 5.81465C10.8652 5.55307 11.0775 5.24121 11.2229 4.89709C11.3684 4.55297 11.4442 4.18342 11.4459 3.80983C11.4477 3.43623 11.3753 3.066 11.233 2.72055C11.0908 2.37509 10.8814 2.06127 10.6171 1.79723C10.3528 1.53319 10.0388 1.32417 9.69319 1.18227C9.34759 1.04036 8.97729 0.968388 8.60369 0.970504C8.2301 0.97262 7.86064 1.04879 7.51666 1.19459C7.17269 1.3404 6.86104 1.55296 6.59974 1.81998L2.63308 5.78665C2.25927 6.16027 1.96432 6.60517 1.76574 7.09496C1.56715 7.58474 1.46897 8.10943 1.47702 8.63788C1.48507 9.16633 1.59919 9.68778 1.81261 10.1713C2.02603 10.6548 2.3344 11.0905 2.71941 11.4526C3.4419 12.124 4.39431 12.4929 5.38058 12.4833C6.4823 12.483 7.53878 12.0451 8.31766 11.2659L12.975 6.60856C13.0307 6.55475 13.0751 6.49039 13.1057 6.41922C13.1363 6.34805 13.1524 6.2715 13.1531 6.19405C13.1537 6.11659 13.139 6.03978 13.1096 5.96809C13.0803 5.8964 13.037 5.83127 12.9822 5.7765C12.9274 5.72173 12.8623 5.67841 12.7906 5.64908C12.7189 5.61975 12.6421 5.60499 12.5647 5.60567C12.4872 5.60634 12.4107 5.62243 12.3395 5.653C12.2683 5.68358 12.204 5.72802 12.1502 5.78373V5.7849Z" fill="#FFA945"/>
</svg>
